<svg xmlns="http://www.w3.org/2000/svg" xmlns:xlink="http://www.w3.org/1999/xlink" preserveAspectRatio="xMidYMid" width="14.97" height="14" viewBox="0 0 14.97 14">
  <defs>
    <style>
      .cls-1 {
        fill: #353130;
        fill-rule: evenodd;
      }
    </style>
  </defs>
  <path d="M14.190,7.889 C14.135,8.271 13.807,8.556 13.420,8.556 L4.614,8.556 L4.743,9.333 L12.642,9.333 C13.072,9.333 13.420,9.681 13.420,10.111 C13.420,10.541 13.072,10.889 12.642,10.889 C12.642,10.889 4.084,10.889 4.083,10.889 C3.983,10.889 3.888,10.868 3.798,10.831 C3.766,10.818 3.740,10.796 3.711,10.779 C3.658,10.751 3.606,10.721 3.561,10.679 C3.533,10.652 3.511,10.622 3.487,10.592 C3.452,10.547 3.418,10.504 3.393,10.453 C3.374,10.415 3.364,10.376 3.351,10.335 C3.340,10.303 3.323,10.274 3.317,10.239 L1.869,1.556 L0.778,1.556 C0.348,1.556 0.000,1.208 0.000,0.778 C0.000,0.348 0.348,-0.000 0.778,-0.000 L2.528,-0.000 C2.909,-0.000 3.233,0.275 3.295,0.650 L3.447,1.556 L14.198,1.556 C14.423,1.556 14.637,1.653 14.786,1.824 C14.933,1.993 15.000,2.220 14.968,2.444 L14.190,7.889 ZM10.308,7.000 L12.745,7.000 L12.967,5.444 L10.308,5.444 L10.308,7.000 ZM6.418,3.111 L3.706,3.111 L3.969,4.690 C4.006,4.679 4.043,4.667 4.084,4.667 L6.418,4.667 L6.418,3.111 ZM6.418,5.444 L4.095,5.444 L4.354,7.000 L6.418,7.000 L6.418,5.444 ZM9.530,3.111 L7.196,3.111 L7.196,4.667 L9.530,4.667 L9.530,3.111 ZM9.530,5.444 L7.196,5.444 L7.196,7.000 L9.530,7.000 L9.530,5.444 ZM10.308,3.111 L10.308,4.667 L13.079,4.667 L13.301,3.111 L10.308,3.111 ZM5.251,11.667 C5.896,11.667 6.418,12.189 6.418,12.833 C6.418,13.477 5.896,14.000 5.251,14.000 C4.607,14.000 4.084,13.477 4.084,12.833 C4.084,12.189 4.607,11.667 5.251,11.667 ZM12.253,11.667 C12.897,11.667 13.420,12.189 13.420,12.833 C13.420,13.477 12.897,14.000 12.253,14.000 C11.609,14.000 11.086,13.477 11.086,12.833 C11.086,12.189 11.609,11.667 12.253,11.667 Z" class="cls-1"/>
</svg>
