<svg xmlns="http://www.w3.org/2000/svg" xmlns:xlink="http://www.w3.org/1999/xlink" preserveAspectRatio="xMidYMid" width="33" height="33" viewBox="0 0 33 33">
  <defs>
    <style>
      .cls-1 {
        fill: #b0b0b0;
        fill-rule: evenodd;
      }
    </style>
  </defs>
  <path d="M33.004,16.502 C33.004,7.409 25.595,0.000 16.502,0.000 C7.409,0.000 0.004,7.409 0.004,16.502 C0.004,21.510 2.276,26.016 5.811,29.044 C5.854,29.087 5.897,29.130 5.979,29.169 C8.839,31.570 12.503,33.000 16.545,33.000 C20.501,33.000 24.164,31.570 27.025,29.254 C27.193,29.212 27.321,29.087 27.403,28.958 C30.817,25.887 33.004,21.467 33.004,16.502 ZM1.520,16.502 C1.520,8.251 8.255,1.516 16.506,1.516 C24.757,1.516 31.492,8.251 31.492,16.502 C31.492,20.544 29.894,24.203 27.282,26.901 C26.861,24.921 25.599,21.553 21.725,19.367 C22.609,18.272 23.112,16.841 23.112,15.325 C23.112,11.704 20.166,8.758 16.545,8.758 C12.924,8.758 9.977,11.704 9.977,15.325 C9.977,16.841 10.523,18.229 11.365,19.367 C7.456,21.553 6.193,24.921 5.815,26.901 C3.161,24.246 1.520,20.544 1.520,16.502 ZM11.455,15.364 C11.455,12.585 13.727,10.313 16.506,10.313 C19.285,10.313 21.557,12.585 21.557,15.364 C21.557,18.143 19.285,20.415 16.506,20.415 C13.727,20.415 11.455,18.143 11.455,15.364 ZM7.160,28.202 C7.245,26.982 7.916,22.855 12.464,20.540 C13.602,21.425 14.990,21.927 16.506,21.927 C18.022,21.927 19.452,21.382 20.590,20.497 C25.096,22.812 25.809,26.854 25.938,28.159 C23.369,30.221 20.088,31.484 16.553,31.484 C12.971,31.488 9.728,30.268 7.160,28.202 Z" class="cls-1"/>
</svg>
