<svg xmlns="http://www.w3.org/2000/svg" xmlns:xlink="http://www.w3.org/1999/xlink" preserveAspectRatio="xMidYMid" width="32.625" height="34.25" viewBox="0 0 32.625 34.25">
  <defs>
    <style>
      .cls-1 {
        fill: #b0b0b0;
        fill-rule: evenodd;
      }
    </style>
  </defs>
  <path d="M32.108,8.315 L26.389,5.955 C26.389,5.951 26.389,5.947 26.389,5.943 C26.389,4.593 25.855,2.329 22.275,2.329 C21.117,2.329 19.688,2.650 18.438,3.198 C19.004,2.507 19.671,1.932 20.340,1.572 C20.751,1.350 20.904,0.837 20.683,0.426 C20.461,0.015 19.948,-0.138 19.537,0.084 C18.374,0.711 17.283,1.802 16.523,2.964 C15.787,1.416 14.658,0.818 14.587,0.782 C14.171,0.569 13.662,0.734 13.450,1.150 C13.237,1.566 13.402,2.075 13.818,2.288 C13.828,2.293 14.445,2.638 14.919,3.545 C13.529,2.788 11.757,2.329 10.372,2.329 C6.792,2.329 6.257,4.593 6.257,5.943 C6.257,5.947 6.257,5.951 6.257,5.955 L0.538,8.315 C0.519,8.323 0.500,8.331 0.482,8.341 C0.482,8.341 0.481,8.341 0.481,8.341 C0.452,8.356 0.254,8.435 0.145,8.618 C0.022,8.823 0.015,9.064 0.015,9.096 L0.015,25.888 C0.015,26.212 0.200,26.507 0.491,26.648 L15.930,34.155 C16.053,34.220 16.187,34.254 16.323,34.254 C16.449,34.254 16.576,34.226 16.693,34.169 L32.155,26.651 C32.447,26.510 32.631,26.214 32.631,25.891 L32.631,9.103 C32.631,9.101 32.632,9.099 32.632,9.096 C32.631,8.754 32.425,8.446 32.108,8.315 ZM22.425,3.978 C24.554,3.978 24.848,4.902 24.848,5.901 C24.848,6.899 24.554,7.823 22.425,7.823 C21.187,7.823 17.281,7.185 17.281,6.286 C17.281,5.387 20.081,3.978 22.425,3.978 ZM10.284,3.978 C12.627,3.978 15.427,5.387 15.427,6.286 C15.427,7.185 11.522,7.823 10.284,7.823 C8.154,7.823 7.860,6.899 7.860,5.900 C7.860,4.902 8.154,3.978 10.284,3.978 ZM7.115,27.989 L1.706,25.359 L1.706,10.360 L7.115,12.591 L7.115,27.989 L7.115,27.989 ZM3.080,9.095 L6.599,7.643 C7.062,8.651 8.108,9.556 10.372,9.556 C11.136,9.556 12.031,9.483 12.916,9.320 L8.436,11.299 L3.080,9.095 ZM15.477,32.055 L8.806,28.811 L8.806,13.289 L15.477,16.042 L15.477,32.055 ZM16.326,14.545 L10.603,12.190 L16.340,9.656 L22.051,12.190 L16.326,14.545 ZM23.840,28.814 L17.169,32.057 L17.169,16.042 L23.840,13.289 L23.840,28.814 ZM19.769,9.327 C20.641,9.484 21.521,9.556 22.275,9.556 C24.539,9.556 25.584,8.651 26.047,7.644 L29.569,9.096 L29.288,9.212 L24.215,11.299 L19.769,9.327 ZM30.940,25.362 L25.532,27.991 L25.532,12.591 L29.970,10.760 L30.940,10.361 L30.940,25.362 L30.940,25.362 Z" class="cls-1"/>
</svg>
