<svg xmlns="http://www.w3.org/2000/svg" xmlns:xlink="http://www.w3.org/1999/xlink" preserveAspectRatio="xMidYMid" width="28.438" height="31.25" viewBox="0 0 28.438 31.25">
  <defs>
    <style>
      .cls-1 {
        fill: #b0b0b0;
        fill-rule: evenodd;
      }
    </style>
  </defs>
  <path d="M27.501,31.261 C26.975,31.261 26.550,30.835 26.550,30.310 L26.550,15.028 C26.550,14.503 26.975,14.077 27.501,14.077 C28.026,14.077 28.451,14.503 28.451,15.028 L28.451,30.310 C28.451,30.835 28.026,31.261 27.501,31.261 ZM20.985,15.470 L22.281,23.027 C22.342,23.384 22.196,23.744 21.903,23.957 C21.737,24.077 21.541,24.138 21.344,24.138 C21.193,24.138 21.041,24.102 20.902,24.029 L14.114,20.461 L7.327,24.029 C7.007,24.197 6.618,24.169 6.326,23.957 C6.033,23.744 5.886,23.384 5.947,23.027 L7.244,15.470 L1.753,10.118 C1.493,9.866 1.400,9.488 1.512,9.144 C1.624,8.800 1.921,8.549 2.280,8.497 L9.868,7.394 L13.262,0.519 C13.422,0.195 13.753,-0.011 14.114,-0.011 C14.476,-0.011 14.807,0.195 14.967,0.519 L18.361,7.394 L25.949,8.497 C26.307,8.549 26.605,8.800 26.717,9.144 C26.828,9.488 26.735,9.866 26.476,10.118 L20.985,15.470 ZM17.592,9.204 C17.283,9.159 17.015,8.964 16.877,8.684 L14.114,3.088 L11.352,8.684 C11.213,8.964 10.946,9.159 10.636,9.204 L4.459,10.101 L8.929,14.457 C9.153,14.676 9.255,14.990 9.202,15.299 L8.147,21.450 L13.672,18.546 C13.949,18.400 14.280,18.400 14.557,18.546 L20.081,21.450 L19.026,15.299 C18.973,14.991 19.076,14.676 19.300,14.457 L23.769,10.101 L17.592,9.204 ZM1.892,15.028 L1.892,30.310 C1.892,30.835 1.466,31.261 0.941,31.261 C0.416,31.261 -0.010,30.835 -0.010,30.310 L-0.010,15.028 C-0.010,14.503 0.416,14.077 0.941,14.077 C1.466,14.077 1.892,14.503 1.892,15.028 ZM7.421,25.684 C7.946,25.684 8.372,26.110 8.372,26.635 L8.372,30.310 C8.372,30.835 7.946,31.261 7.421,31.261 C6.896,31.261 6.470,30.835 6.470,30.310 L6.470,26.635 C6.470,26.110 6.896,25.684 7.421,25.684 ZM14.114,22.702 C14.639,22.702 15.065,23.127 15.065,23.652 L15.065,30.310 C15.065,30.835 14.639,31.261 14.114,31.261 C13.589,31.261 13.164,30.835 13.164,30.310 L13.164,23.652 C13.164,23.127 13.589,22.702 14.114,22.702 ZM20.807,25.684 C21.332,25.684 21.758,26.110 21.758,26.635 L21.758,30.310 C21.758,30.835 21.332,31.261 20.807,31.261 C20.282,31.261 19.857,30.835 19.857,30.310 L19.857,26.635 C19.857,26.110 20.282,25.684 20.807,25.684 Z" class="cls-1"/>
</svg>
