<svg xmlns="http://www.w3.org/2000/svg" xmlns:xlink="http://www.w3.org/1999/xlink" preserveAspectRatio="xMidYMid" width="27.937" height="30.531" viewBox="0 0 27.937 30.531">
  <defs>
    <style>
      .cls-1 {
        fill: #b0b0b0;
        fill-rule: evenodd;
      }
    </style>
  </defs>
  <path d="M17.887,9.847 L8.480,9.847 C8.067,9.847 7.732,9.511 7.732,9.098 C7.732,8.685 8.067,8.350 8.480,8.350 L17.887,8.350 C18.301,8.350 18.636,8.685 18.636,9.098 C18.636,9.511 18.301,9.847 17.887,9.847 ZM8.480,4.144 C8.067,4.144 7.732,3.809 7.732,3.396 C7.732,2.982 8.067,2.647 8.480,2.647 L13.437,2.647 C13.851,2.647 14.186,2.982 14.186,3.396 C14.186,3.809 13.851,4.144 13.437,4.144 L8.480,4.144 ZM18.636,6.247 C18.636,6.660 18.301,6.995 17.887,6.995 L8.480,6.995 C8.067,6.995 7.732,6.660 7.732,6.247 C7.732,5.834 8.067,5.498 8.480,5.498 L17.887,5.498 C18.301,5.498 18.636,5.834 18.636,6.247 ZM20.674,6.995 C20.260,6.995 19.925,6.660 19.925,6.247 C19.925,5.834 20.260,5.498 20.674,5.498 L22.712,5.498 C23.125,5.498 23.460,5.834 23.460,6.247 C23.460,6.660 23.125,6.995 22.712,6.995 L20.674,6.995 ZM23.521,30.528 L3.439,30.528 L3.386,30.528 C1.518,30.528 -0.002,29.009 -0.002,27.142 L-0.002,8.418 C-0.002,8.005 0.333,7.670 0.747,7.670 L3.385,7.670 C3.799,7.670 4.134,8.005 4.134,8.418 C4.134,8.831 3.799,9.167 3.385,9.167 L1.495,9.167 L1.495,27.142 C1.495,28.184 2.343,29.032 3.385,29.032 L3.439,29.032 C4.481,29.032 5.329,28.184 5.329,27.142 L5.329,12.189 C5.322,12.147 5.317,12.105 5.317,12.061 L5.317,0.738 C5.317,0.325 5.652,-0.010 6.066,-0.010 L25.498,-0.010 C25.912,-0.010 26.247,0.325 26.247,0.738 L26.247,9.098 C26.247,9.511 25.912,9.847 25.498,9.847 C25.085,9.847 24.749,9.511 24.749,9.098 L24.749,1.486 L6.814,1.486 L6.814,11.313 L27.194,11.313 C27.607,11.313 27.942,11.648 27.942,12.061 L27.942,26.108 C27.942,28.545 25.959,30.528 23.521,30.528 ZM26.445,12.810 L6.826,12.810 L6.826,27.142 C6.826,27.841 6.613,28.492 6.248,29.032 L23.521,29.032 C25.133,29.032 26.445,27.720 26.445,26.108 L26.445,12.810 Z" class="cls-1"/>
</svg>
