<svg xmlns="http://www.w3.org/2000/svg" xmlns:xlink="http://www.w3.org/1999/xlink" preserveAspectRatio="xMidYMid" width="39" height="37.938" viewBox="0 0 39 37.938">
  <defs>
    <style>
      .cls-1 {
        fill: #9fbc67;
        fill-rule: evenodd;
      }
    </style>
  </defs>
  <path d="M20.094,8.704 C21.662,8.704 23.249,7.510 23.249,5.227 C23.249,3.591 22.125,1.391 20.689,0.219 C20.344,-0.062 19.844,-0.062 19.500,0.219 C18.064,1.391 16.939,3.591 16.939,5.227 C16.939,7.510 18.527,8.704 20.094,8.704 ZM20.094,2.227 C20.829,3.112 21.387,4.355 21.387,5.227 C21.387,6.442 20.691,6.873 20.094,6.873 C19.498,6.873 18.801,6.442 18.801,5.227 C18.802,4.354 19.360,3.112 20.094,2.227 ZM31.092,29.246 C31.092,27.602 29.731,26.264 28.058,26.264 C26.385,26.264 25.024,27.602 25.024,29.246 C25.024,30.890 26.385,32.228 28.058,32.228 C29.731,32.228 31.092,30.890 31.092,29.246 ZM26.887,29.246 C26.887,28.611 27.412,28.095 28.058,28.095 C28.704,28.095 29.229,28.611 29.229,29.246 C29.229,29.881 28.704,30.398 28.058,30.398 C27.412,30.398 26.887,29.881 26.887,29.246 ZM13.944,28.222 C13.973,28.727 13.580,29.159 13.067,29.188 C12.179,29.237 11.257,29.262 10.326,29.262 C9.396,29.262 8.474,29.237 7.586,29.188 C7.073,29.159 6.680,28.727 6.709,28.222 C6.738,27.718 7.179,27.331 7.691,27.360 C9.397,27.455 11.256,27.455 12.962,27.360 C13.474,27.333 13.915,27.718 13.944,28.222 ZM38.999,21.860 L38.999,32.618 C39.000,32.627 39.000,32.636 39.000,32.645 C39.000,33.785 37.725,34.531 34.868,35.064 C32.636,35.480 29.681,35.709 26.547,35.709 C25.375,35.709 24.215,35.677 23.101,35.613 C22.587,35.583 22.195,35.150 22.225,34.646 C22.255,34.141 22.694,33.754 23.209,33.785 C24.288,33.847 25.411,33.879 26.547,33.879 C32.793,33.879 36.446,32.979 37.137,32.464 L37.137,23.660 C36.537,23.880 35.783,24.073 34.868,24.243 C32.636,24.659 29.681,24.889 26.547,24.889 C25.376,24.889 24.217,24.856 23.101,24.792 C22.587,24.763 22.195,24.330 22.225,23.825 C22.255,23.321 22.694,22.936 23.209,22.965 C24.289,23.027 25.412,23.058 26.548,23.058 C32.793,23.058 36.446,22.159 37.137,21.643 L37.137,20.127 C36.537,20.348 35.784,20.540 34.868,20.711 C32.636,21.127 29.681,21.356 26.548,21.356 C25.376,21.356 24.217,21.324 23.101,21.260 C22.587,21.230 22.196,20.797 22.225,20.293 C22.255,19.788 22.694,19.402 23.209,19.433 C24.289,19.494 25.412,19.526 26.548,19.526 C32.109,19.526 35.615,18.813 36.804,18.292 C35.615,17.772 32.109,17.059 26.548,17.059 C25.411,17.059 24.288,17.091 23.209,17.152 C22.695,17.182 22.255,16.797 22.225,16.292 C22.196,15.787 22.587,15.354 23.101,15.325 C24.216,15.261 25.375,15.229 26.548,15.229 C29.681,15.229 32.636,15.458 34.868,15.874 C37.726,16.407 39.000,17.153 39.000,18.292 C39.000,18.322 38.999,18.352 38.997,18.381 C38.999,18.402 39.000,18.423 39.000,18.444 L39.000,21.798 C39.000,21.807 39.000,21.816 39.000,21.825 C39.000,21.836 39.000,21.848 38.999,21.860 ZM10.326,25.900 C11.999,25.900 13.360,24.562 13.360,22.917 C13.360,21.273 11.999,19.935 10.326,19.935 C8.654,19.935 7.293,21.273 7.293,22.917 C7.293,24.562 8.654,25.900 10.326,25.900 ZM10.326,21.766 C10.972,21.766 11.498,22.283 11.498,22.917 C11.498,23.553 10.972,24.069 10.326,24.069 C9.680,24.069 9.155,23.553 9.155,22.917 C9.155,22.283 9.680,21.766 10.326,21.766 ZM17.038,9.790 L14.389,9.790 L14.389,7.187 C14.389,5.299 13.051,3.713 11.258,3.299 L11.258,1.839 L15.562,1.839 C16.076,1.839 16.493,1.429 16.493,0.924 C16.493,0.419 16.076,0.009 15.562,0.009 L10.372,0.009 C10.342,0.007 10.311,0.007 10.281,0.009 L7.852,0.009 C7.338,0.009 6.921,0.419 6.921,0.924 C6.921,1.429 7.338,1.839 7.852,1.839 L9.395,1.839 L9.395,3.299 C7.602,3.713 6.264,5.299 6.264,7.187 L6.264,9.790 L3.615,9.790 C1.622,9.790 0.000,11.384 0.000,13.343 L0.000,35.271 C0.000,36.586 1.875,37.104 3.509,37.409 C5.339,37.750 7.760,37.938 10.326,37.938 C12.892,37.938 15.313,37.750 17.144,37.409 C18.777,37.104 20.653,36.586 20.653,35.271 L20.653,13.343 C20.653,11.384 19.031,9.790 17.038,9.790 ZM8.126,7.187 C8.126,5.994 9.113,5.023 10.326,5.023 C11.540,5.023 12.527,5.994 12.527,7.187 L12.527,9.790 L8.126,9.790 L8.126,7.187 ZM18.791,35.031 C18.103,35.446 15.210,36.108 10.326,36.108 C5.443,36.108 2.550,35.446 1.862,35.031 L1.862,32.046 C2.385,32.219 2.961,32.345 3.509,32.447 C5.339,32.788 7.760,32.976 10.326,32.976 C12.892,32.976 15.313,32.788 17.144,32.447 C17.692,32.345 18.268,32.219 18.791,32.046 L18.791,35.031 L18.791,35.031 ZM18.791,30.070 C18.103,30.484 15.210,31.146 10.326,31.146 C5.443,31.146 2.550,30.484 1.862,30.070 L1.862,17.388 C2.385,17.561 2.961,17.687 3.509,17.790 C5.339,18.131 7.760,18.319 10.327,18.319 C12.893,18.319 15.313,18.131 17.144,17.790 C17.692,17.687 18.268,17.561 18.791,17.388 L18.791,30.070 L18.791,30.070 ZM18.791,15.412 C18.103,15.827 15.210,16.488 10.326,16.488 C5.443,16.488 2.550,15.827 1.862,15.412 L1.862,13.343 C1.862,12.393 2.649,11.620 3.615,11.620 L17.038,11.620 C18.004,11.620 18.791,12.393 18.791,13.343 L18.791,15.412 L18.791,15.412 Z" class="cls-1"/>
</svg>
