<svg xmlns="http://www.w3.org/2000/svg" xmlns:xlink="http://www.w3.org/1999/xlink" preserveAspectRatio="xMidYMid" width="31.719" height="42.875" viewBox="0 0 31.719 42.875">
  <defs>
    <style>
      .cls-1 {
        fill: #9fbc67;
        fill-rule: evenodd;
      }
    </style>
  </defs>
  <path d="M11.916,14.621 C11.916,15.181 11.462,15.634 10.903,15.634 L5.582,15.634 C5.022,15.634 4.569,15.181 4.569,14.621 C4.569,14.062 5.022,13.609 5.582,13.609 L10.903,13.609 C11.462,13.609 11.916,14.062 11.916,14.621 ZM11.407,41.863 C11.407,42.422 10.954,42.875 10.395,42.875 L6.090,42.875 C2.736,42.875 0.008,40.146 0.008,36.793 L0.008,13.079 C0.008,10.896 1.183,8.896 3.051,7.815 L3.051,4.979 C2.448,4.458 2.066,3.688 2.066,2.830 C2.066,1.263 3.340,-0.011 4.907,-0.011 L11.578,-0.011 C13.144,-0.011 14.419,1.263 14.419,2.830 C14.419,3.688 14.037,4.458 13.434,4.979 L13.434,7.815 C15.302,8.896 16.477,10.896 16.477,13.079 L16.477,14.513 C16.477,15.073 16.023,15.526 15.464,15.526 C14.905,15.526 14.452,15.073 14.452,14.513 L14.452,13.079 C14.452,11.472 13.495,10.012 12.014,9.361 C11.646,9.199 11.409,8.836 11.409,8.434 L11.409,5.671 L5.076,5.671 L5.076,8.434 C5.076,8.836 4.839,9.199 4.471,9.361 C2.990,10.012 2.032,11.472 2.032,13.079 L2.032,36.792 C2.032,39.030 3.853,40.850 6.090,40.850 L10.395,40.850 C10.954,40.850 11.407,41.303 11.407,41.863 ZM4.090,2.830 C4.090,3.280 4.456,3.646 4.907,3.646 L11.578,3.646 C12.028,3.646 12.394,3.280 12.394,2.830 C12.394,2.380 12.028,2.013 11.578,2.013 L4.907,2.013 C4.464,2.013 4.090,2.387 4.090,2.830 ZM29.674,30.202 C30.022,31.198 30.206,32.256 30.206,33.338 C30.206,37.146 27.962,40.440 24.728,41.967 C24.686,41.990 24.644,42.009 24.601,42.026 C23.401,42.571 22.069,42.875 20.668,42.875 C15.410,42.875 11.131,38.596 11.131,33.338 C11.131,30.402 12.488,27.635 14.785,25.832 L14.785,22.377 C14.785,19.392 17.020,16.919 19.904,16.543 C20.094,15.978 20.322,15.431 20.586,14.904 C19.725,12.363 20.522,9.192 22.617,7.014 C24.918,4.623 28.162,3.683 30.690,4.674 C30.940,4.772 31.140,4.965 31.248,5.211 C32.335,7.699 31.520,10.976 29.219,13.367 C27.078,15.592 24.476,16.615 22.223,16.175 C22.152,16.332 22.084,16.490 22.021,16.651 C24.615,17.263 26.552,19.598 26.552,22.377 L26.552,25.832 C27.959,26.937 29.013,28.403 29.619,30.048 C29.641,30.097 29.660,30.149 29.674,30.202 ZM22.293,12.337 C22.798,11.749 23.359,11.204 23.973,10.707 C24.160,10.556 24.385,10.482 24.609,10.482 C24.904,10.482 25.196,10.610 25.396,10.857 C25.748,11.292 25.681,11.930 25.246,12.281 C24.529,12.861 23.897,13.521 23.360,14.245 C24.770,14.208 26.382,13.395 27.760,11.963 C29.342,10.320 30.035,8.110 29.540,6.427 C27.839,5.997 25.658,6.774 24.076,8.418 C22.938,9.601 22.390,11.037 22.293,12.337 ZM22.723,40.564 C22.169,39.490 21.881,38.301 21.881,37.066 C21.881,33.670 24.119,30.725 27.265,29.746 C26.714,28.735 25.932,27.849 24.961,27.172 C24.689,26.983 24.528,26.673 24.528,26.342 L24.528,22.377 C24.528,20.256 22.807,18.529 20.689,18.518 C20.676,18.519 20.662,18.519 20.649,18.518 C18.530,18.529 16.810,20.256 16.810,22.377 L16.810,26.342 C16.810,26.673 16.648,26.983 16.376,27.172 C14.360,28.579 13.156,30.883 13.156,33.338 C13.156,37.480 16.526,40.850 20.668,40.850 C21.381,40.850 22.070,40.751 22.723,40.564 ZM28.181,33.338 C28.181,32.761 28.114,32.193 27.987,31.643 C25.609,32.325 23.905,34.523 23.905,37.066 C23.905,38.016 24.137,38.929 24.582,39.748 C26.739,38.426 28.181,36.047 28.181,33.338 ZM10.903,21.008 L5.582,21.008 C5.022,21.008 4.569,21.461 4.569,22.020 C4.569,22.580 5.022,23.033 5.582,23.033 L10.903,23.033 C11.462,23.033 11.915,22.580 11.915,22.020 C11.915,21.461 11.462,21.008 10.903,21.008 Z" class="cls-1"/>
</svg>
