<?xml version="1.0" encoding="utf-8"?>
<!-- Generator: Adobe Illustrator 19.1.0, SVG Export Plug-In . SVG Version: 6.00 Build 0)  -->
<svg version="1.1" id="Layer_3" xmlns="http://www.w3.org/2000/svg" xmlns:xlink="http://www.w3.org/1999/xlink" x="0px" y="0px"
	 viewBox="0 0 36 36" style="enable-background:new 0 0 36 36;" xml:space="preserve">
<style type="text/css">
	.st0{fill-rule:evenodd;clip-rule:evenodd;fill:#39B9DC;}
</style>
<path class="st0" d="M36,0H18H0v18v18h18h18V18V0L36,0z M21.2,26.8L21.2,26.8h-0.6h-2.2c-3.7,0-6.8-3.1-6.8-6.8v-3.5v-0.8v-4.2
	c0-1.2,1-2.2,2.2-2.2l0,0c1.2,0,2.2,1,2.2,2.2V13v0.6h4.6h1.5h0.2c1.2,0,2.2,1,2.2,2.2l0,0c0,1.2-1,2.2-2.2,2.2h-0.2h-1.5H16v2.2
	c0,1.1,0.9,2,2,2h2.6h1h0.7c1.2,0,2.2,1,2.2,2.2l0,0c0,1.2-1,2.2-2.2,2.2H21.2z"/>
</svg>
