<svg xmlns="http://www.w3.org/2000/svg" xmlns:xlink="http://www.w3.org/1999/xlink" preserveAspectRatio="xMidYMid" width="34.94" height="34" viewBox="0 0 34.94 34">
  <defs>
    <style>
      .cls-1 {
        fill: #9fbc67;
        fill-rule: evenodd;
      }
    </style>
  </defs>
  <path d="M32.269,13.098 C33.440,14.641 33.598,17.163 32.736,20.611 C32.068,23.286 31.024,25.545 30.981,25.640 L30.760,26.115 L30.243,26.120 C28.390,26.140 27.168,26.365 26.433,26.571 C25.768,28.603 23.921,30.114 21.698,30.307 L21.698,30.356 C21.698,32.365 20.089,34.000 18.111,34.000 L16.829,34.000 C14.851,34.000 13.242,32.365 13.242,30.356 L13.242,30.313 C10.991,30.143 9.117,28.622 8.446,26.571 C7.711,26.365 6.489,26.140 4.636,26.121 L4.119,26.116 L3.898,25.640 C3.856,25.550 2.863,23.400 2.193,20.810 C1.269,17.238 1.420,14.632 2.641,13.059 C1.781,11.951 -0.030,9.291 0.003,6.556 L0.005,6.430 L0.043,6.310 C0.096,6.143 0.614,4.636 2.550,3.114 C3.666,2.237 5.034,1.533 6.617,1.020 C8.557,0.392 10.832,0.052 13.380,0.007 C13.495,0.005 13.736,0.000 14.365,0.385 C14.637,0.550 15.045,0.832 15.450,1.232 C15.934,1.709 16.282,2.227 16.483,2.765 C16.788,2.753 17.108,2.747 17.439,2.747 C17.793,2.747 18.133,2.754 18.456,2.767 C18.657,2.228 19.005,1.709 19.489,1.231 C19.894,0.832 20.303,0.551 20.575,0.385 C21.204,0.000 21.444,0.005 21.560,0.007 C24.108,0.051 26.383,0.392 28.323,1.020 C29.906,1.533 31.274,2.237 32.390,3.114 C34.326,4.636 34.844,6.143 34.897,6.310 L34.935,6.430 L34.936,6.556 C34.970,9.323 33.116,12.014 32.269,13.098 ZM14.892,30.356 C14.892,31.441 15.761,32.324 16.829,32.324 L18.111,32.324 C19.179,32.324 20.048,31.441 20.048,30.356 L20.047,30.356 L20.047,30.206 C19.709,30.134 19.378,30.030 19.057,29.893 C18.806,29.924 18.541,29.947 18.264,29.962 L18.264,31.256 L16.614,31.256 L16.614,29.962 C16.337,29.947 16.073,29.924 15.822,29.893 C15.520,30.021 15.209,30.121 14.892,30.193 L14.892,30.356 ZM17.395,24.750 C18.370,24.750 19.199,24.464 19.560,24.004 C19.739,23.775 19.804,23.488 19.758,23.131 C19.652,23.123 19.528,23.114 19.383,23.103 C18.957,23.070 18.348,23.023 17.478,22.956 C17.453,22.954 17.426,22.954 17.400,22.956 C17.400,22.956 16.325,23.039 15.491,23.103 C15.359,23.113 15.231,23.123 15.116,23.131 C15.107,23.276 15.103,23.420 15.104,23.499 C15.139,23.850 15.351,24.316 16.160,24.574 C16.516,24.688 16.954,24.750 17.395,24.750 L17.395,24.750 ZM32.032,8.073 C31.154,7.951 30.275,7.552 29.681,6.868 C29.085,6.181 28.773,5.324 28.918,4.408 C28.983,3.992 29.154,3.582 29.407,3.240 C28.881,2.993 28.316,2.773 27.714,2.583 C25.985,2.038 23.951,1.736 21.668,1.686 C21.376,1.823 20.666,2.283 20.242,2.903 C21.120,3.000 21.665,3.109 21.706,3.118 L21.383,4.762 C21.366,4.759 19.681,4.424 17.441,4.424 C15.188,4.424 13.516,4.759 13.499,4.762 L13.175,3.118 C13.217,3.109 13.785,2.996 14.696,2.896 C14.271,2.281 13.565,1.823 13.274,1.686 C10.991,1.737 8.957,2.038 7.228,2.584 C5.837,3.022 4.642,3.618 3.673,4.354 C2.473,5.266 1.857,6.241 1.655,6.721 C1.667,7.373 1.815,8.031 2.035,8.657 C2.784,8.737 3.576,8.839 4.267,9.150 C4.919,9.443 5.346,10.049 5.722,10.640 C5.933,10.972 6.097,11.343 6.105,11.745 C6.113,12.137 6.002,12.516 5.827,12.862 C5.659,13.195 5.437,13.493 5.208,13.785 C5.180,13.821 5.150,13.857 5.119,13.891 C5.285,14.258 5.409,14.586 5.513,14.865 C5.561,14.992 5.615,15.136 5.663,15.251 C5.720,15.223 5.791,15.184 5.879,15.132 C6.186,14.948 7.133,14.145 9.290,10.654 C10.513,8.675 11.520,6.806 11.530,6.788 L12.978,7.591 C12.968,7.610 11.941,9.517 10.692,11.539 C8.084,15.759 7.054,16.374 6.715,16.576 C6.345,16.798 5.924,17.007 5.490,17.007 C5.349,17.007 5.207,16.985 5.065,16.934 C4.440,16.712 4.213,16.105 3.971,15.462 C3.877,15.209 3.770,14.925 3.629,14.613 C3.381,15.153 3.253,15.847 3.248,16.689 C3.243,17.608 3.385,18.685 3.669,19.897 C4.806,19.816 5.923,20.474 6.657,21.342 C7.350,22.160 8.063,23.228 8.210,24.346 C8.304,23.435 8.628,22.567 9.161,21.810 C9.783,20.925 10.647,20.250 11.658,19.856 L11.953,20.639 L12.248,21.422 C11.540,21.697 10.937,22.169 10.503,22.785 C10.063,23.410 9.831,24.143 9.831,24.906 C9.831,25.037 9.838,25.166 9.851,25.294 C9.920,25.943 10.159,26.544 10.524,27.052 C11.142,27.913 12.120,28.509 13.242,28.630 C13.381,28.645 13.522,28.653 13.665,28.653 C13.800,28.653 13.935,28.646 14.067,28.633 C14.350,28.604 14.625,28.546 14.892,28.457 C15.047,28.406 15.200,28.345 15.348,28.273 L15.573,28.166 L15.819,28.202 C16.065,28.239 16.331,28.266 16.615,28.283 L16.615,27.798 L16.615,26.378 C16.280,26.336 15.960,26.268 15.665,26.174 C15.614,26.157 15.563,26.139 15.513,26.121 C15.291,26.040 15.083,25.943 14.893,25.830 C14.567,25.638 14.290,25.401 14.068,25.129 C13.721,24.704 13.508,24.194 13.460,23.631 C13.450,23.505 13.457,23.187 13.478,22.922 C13.521,22.357 13.611,22.049 13.800,21.823 C13.956,21.637 14.172,21.523 14.408,21.505 C14.409,21.505 14.874,21.469 15.430,21.426 C16.254,21.363 17.276,21.284 17.276,21.284 C17.384,21.276 17.495,21.276 17.604,21.284 C17.604,21.284 18.623,21.363 19.445,21.426 C19.915,21.463 20.321,21.494 20.433,21.502 L20.464,21.505 L20.465,21.505 C20.588,21.514 21.007,21.584 21.201,22.080 C21.223,22.138 21.244,22.202 21.265,22.282 C21.294,22.389 21.318,22.500 21.328,22.547 L21.330,22.556 C21.598,23.737 21.235,24.544 20.872,25.020 C20.866,25.029 20.859,25.038 20.852,25.047 C20.637,25.322 20.365,25.560 20.048,25.758 C19.817,25.900 19.563,26.022 19.287,26.121 C18.971,26.234 18.629,26.317 18.264,26.368 L18.264,27.797 L18.264,28.283 C18.547,28.265 18.813,28.238 19.060,28.202 L19.306,28.166 L19.530,28.273 C19.699,28.354 19.871,28.422 20.047,28.476 C20.315,28.560 20.590,28.614 20.872,28.638 C20.985,28.648 21.099,28.652 21.214,28.652 C21.378,28.652 21.539,28.643 21.698,28.623 C22.795,28.487 23.748,27.897 24.355,27.052 C24.720,26.543 24.959,25.943 25.028,25.293 C25.041,25.166 25.048,25.036 25.048,24.905 C25.048,24.142 24.816,23.409 24.376,22.784 C23.942,22.168 23.339,21.696 22.631,21.421 L22.926,20.638 L23.221,19.855 C24.232,20.249 25.096,20.924 25.718,21.809 C26.336,22.687 26.672,23.713 26.696,24.783 C27.448,24.626 28.432,24.495 29.694,24.455 C30.025,23.673 30.686,22.009 31.142,20.176 C31.501,18.732 31.664,17.473 31.625,16.434 C31.600,15.740 31.483,15.155 31.280,14.682 C31.154,14.967 31.056,15.228 30.969,15.462 C30.728,16.105 30.500,16.711 29.875,16.934 C29.733,16.985 29.591,17.007 29.450,17.007 C29.016,17.007 28.595,16.797 28.225,16.576 C27.886,16.374 26.856,15.758 24.248,11.538 C22.999,9.517 21.972,7.610 21.962,7.591 L23.410,6.787 C23.420,6.806 24.426,8.674 25.650,10.654 C27.807,14.144 28.754,14.948 29.061,15.131 C29.149,15.184 29.220,15.222 29.277,15.251 C29.325,15.136 29.379,14.991 29.427,14.865 C29.737,14.038 30.206,12.790 31.489,11.351 C32.046,10.541 32.731,9.370 33.073,8.120 C32.726,8.136 32.381,8.121 32.032,8.073 ZM20.303,23.172 C20.315,23.174 20.327,23.175 20.339,23.176 L20.339,23.175 C20.329,23.174 20.317,23.174 20.303,23.172 ZM24.694,15.842 C24.913,16.404 24.858,17.049 24.544,17.613 C24.259,18.125 23.785,18.534 23.210,18.765 C22.883,18.896 22.545,18.962 22.204,18.962 C21.271,18.962 20.469,18.451 20.162,17.660 C19.943,17.098 19.998,16.452 20.312,15.888 C20.597,15.376 21.071,14.967 21.645,14.737 C21.972,14.606 22.311,14.539 22.652,14.539 C23.585,14.539 24.387,15.050 24.694,15.842 ZM21.781,16.733 C21.745,16.798 21.690,16.923 21.732,17.031 C21.782,17.159 21.976,17.248 22.204,17.248 C22.330,17.248 22.464,17.221 22.591,17.170 C22.984,17.013 23.200,16.665 23.125,16.471 C23.075,16.343 22.881,16.254 22.653,16.254 C22.526,16.254 22.392,16.281 22.265,16.331 C22.052,16.417 21.875,16.564 21.781,16.733 ZM21.803,25.124 C22.291,25.124 22.450,25.641 22.281,25.980 C22.199,26.145 22.040,26.267 21.803,26.267 C21.766,26.267 21.731,26.264 21.698,26.258 C21.585,26.238 21.494,26.189 21.425,26.121 C21.134,25.833 21.225,25.214 21.698,25.133 C21.731,25.128 21.765,25.124 21.803,25.124 ZM22.478,26.895 C22.848,26.895 23.029,27.193 23.021,27.485 C23.014,27.765 22.833,28.039 22.478,28.039 C22.263,28.039 22.112,27.938 22.025,27.797 C21.816,27.462 21.967,26.896 22.478,26.895 ZM23.715,24.495 C24.220,24.495 24.373,25.048 24.175,25.385 C24.089,25.532 23.936,25.638 23.715,25.638 C23.576,25.638 23.465,25.596 23.379,25.528 C23.016,25.243 23.128,24.495 23.715,24.495 ZM18.137,13.405 C18.156,13.685 18.168,13.973 18.066,14.239 C17.860,14.772 17.289,15.142 16.717,15.073 C15.820,14.966 15.425,14.292 14.971,13.603 C14.510,12.905 13.850,12.231 13.748,11.358 C13.687,10.836 14.286,9.131 15.047,9.392 C15.436,9.524 15.798,9.600 16.186,9.614 C16.601,9.630 17.045,9.614 17.444,9.748 C17.978,9.928 18.532,10.333 18.619,10.943 C18.749,11.857 18.078,12.530 18.137,13.404 C18.137,13.404 18.137,13.405 18.137,13.405 ZM14.606,15.888 C14.920,16.452 14.975,17.098 14.756,17.660 C14.449,18.451 13.647,18.962 12.715,18.962 C12.373,18.962 12.034,18.896 11.708,18.765 C11.133,18.534 10.659,18.125 10.374,17.613 C10.060,17.049 10.005,16.404 10.224,15.842 C10.531,15.050 11.333,14.539 12.266,14.539 C12.607,14.539 12.946,14.606 13.273,14.737 C13.847,14.967 14.321,15.376 14.606,15.888 ZM13.137,16.733 C13.043,16.563 12.866,16.417 12.653,16.331 C12.526,16.280 12.392,16.253 12.265,16.253 C12.037,16.253 11.842,16.343 11.793,16.471 C11.718,16.665 11.934,17.012 12.327,17.170 C12.454,17.221 12.588,17.248 12.714,17.248 C12.942,17.248 13.137,17.158 13.187,17.030 C13.228,16.923 13.174,16.798 13.137,16.733 ZM12.879,27.797 C12.791,27.938 12.640,28.039 12.426,28.039 C12.078,28.039 11.898,27.777 11.883,27.503 C11.867,27.206 12.048,26.896 12.426,26.896 C12.937,26.896 13.087,27.462 12.879,27.797 ZM11.188,25.638 C10.969,25.638 10.817,25.533 10.730,25.388 C10.530,25.051 10.682,24.495 11.188,24.495 C11.778,24.495 11.888,25.251 11.519,25.533 C11.434,25.599 11.324,25.638 11.188,25.638 ZM12.633,26.001 C12.446,25.663 12.602,25.124 13.101,25.124 C13.152,25.124 13.198,25.130 13.242,25.140 C13.683,25.245 13.762,25.840 13.479,26.120 C13.417,26.181 13.338,26.227 13.242,26.250 C13.198,26.261 13.152,26.267 13.101,26.267 C12.874,26.267 12.718,26.155 12.633,26.001 Z" class="cls-1"/>
</svg>
