<svg xmlns="http://www.w3.org/2000/svg" xmlns:xlink="http://www.w3.org/1999/xlink" preserveAspectRatio="xMidYMid" width="44.781" height="38.438" viewBox="0 0 44.781 38.438">
  <defs>
    <style>
      .cls-1 {
        fill: #fff;
        fill-rule: evenodd;
      }
    </style>
  </defs>
  <path d="M21.235,1.885 L21.235,1.147 C21.235,0.506 21.754,-0.013 22.395,-0.013 C23.036,-0.013 23.556,0.506 23.556,1.147 L23.556,1.885 C23.556,2.526 23.036,3.046 22.395,3.046 C21.754,3.046 21.235,2.526 21.235,1.885 ZM9.502,5.650 C9.717,6.023 10.107,6.231 10.508,6.231 C10.705,6.231 10.904,6.181 11.087,6.076 C11.642,5.755 11.832,5.046 11.512,4.491 L11.143,3.852 C10.823,3.296 10.113,3.106 9.558,3.426 C9.003,3.747 8.813,4.456 9.133,5.011 L9.502,5.650 ZM6.844,17.739 C7.442,17.970 8.114,17.672 8.345,17.074 C10.570,11.311 16.217,7.439 22.395,7.439 C28.574,7.439 34.220,11.311 36.445,17.074 C36.623,17.535 37.062,17.817 37.528,17.817 C37.667,17.817 37.808,17.792 37.946,17.739 C38.544,17.508 38.841,16.836 38.610,16.238 C37.360,13.001 35.190,10.234 32.334,8.239 C29.410,6.197 25.973,5.118 22.395,5.118 C18.817,5.118 15.380,6.197 12.456,8.239 C9.600,10.234 7.430,13.001 6.180,16.238 C5.949,16.836 6.247,17.508 6.844,17.739 ZM42.987,14.934 C43.184,14.934 43.383,14.884 43.566,14.778 L44.205,14.409 C44.760,14.089 44.950,13.379 44.630,12.824 C44.309,12.269 43.599,12.079 43.044,12.399 L42.405,12.769 C41.850,13.089 41.660,13.799 41.981,14.354 C42.196,14.726 42.586,14.934 42.987,14.934 ZM33.703,6.075 C33.885,6.181 34.085,6.231 34.282,6.231 C34.683,6.231 35.073,6.023 35.288,5.651 L35.657,5.012 C35.977,4.457 35.787,3.747 35.232,3.427 C34.677,3.106 33.968,3.296 33.647,3.851 L33.278,4.490 C32.958,5.045 33.148,5.755 33.703,6.075 ZM0.585,14.409 L1.224,14.778 C1.407,14.884 1.607,14.934 1.803,14.934 C2.204,14.934 2.594,14.726 2.809,14.353 C3.130,13.798 2.940,13.089 2.385,12.768 L1.746,12.399 C1.191,12.079 0.481,12.269 0.161,12.824 C-0.160,13.379 0.030,14.089 0.585,14.409 ZM22.395,11.356 C18.799,11.356 15.528,13.166 13.858,16.079 C13.540,16.635 13.732,17.344 14.288,17.663 C14.844,17.982 15.553,17.789 15.872,17.233 C17.129,15.040 19.629,13.677 22.395,13.677 C25.162,13.677 27.661,15.040 28.918,17.233 C29.133,17.607 29.524,17.817 29.926,17.817 C30.122,17.817 30.320,17.767 30.502,17.663 C31.058,17.344 31.251,16.635 30.932,16.079 C29.262,13.166 25.991,11.356 22.395,11.356 ZM13.083,33.436 C13.427,33.436 13.762,33.263 13.956,32.949 C16.608,28.662 23.609,21.640 40.703,22.781 C41.268,22.818 41.756,22.391 41.794,21.826 C41.832,21.261 41.404,20.772 40.839,20.734 C33.707,20.259 27.517,21.132 22.442,23.332 C18.019,25.248 14.482,28.201 12.212,31.871 C11.914,32.352 12.063,32.984 12.545,33.282 C12.713,33.386 12.899,33.436 13.083,33.436 L13.083,33.436 ZM17.633,36.694 C17.960,36.694 18.282,36.539 18.480,36.248 C22.618,30.208 29.481,27.582 40.076,28.521 C40.641,28.571 41.138,28.154 41.188,27.590 C41.238,27.026 40.821,26.528 40.257,26.478 C34.659,25.982 30.081,26.625 26.262,27.930 C24.287,28.605 22.495,29.543 20.934,30.718 C19.356,31.906 17.961,33.376 16.788,35.089 C16.468,35.557 16.587,36.195 17.055,36.515 C17.232,36.636 17.434,36.694 17.633,36.694 L17.633,36.694 ZM23.324,38.438 C23.672,38.438 24.011,38.261 24.204,37.941 C25.474,35.832 28.135,34.763 30.143,34.239 C32.727,33.563 35.717,33.397 38.346,33.782 C38.907,33.864 39.428,33.477 39.510,32.917 C39.592,32.356 39.204,31.835 38.644,31.753 C35.753,31.329 32.465,31.512 29.624,32.254 C26.216,33.145 23.734,34.746 22.447,36.883 C22.155,37.368 22.311,37.998 22.796,38.290 C22.962,38.390 23.144,38.438 23.324,38.438 L23.324,38.438 ZM19.257,26.401 C19.555,26.401 19.850,26.272 20.053,26.023 C20.410,25.584 20.344,24.938 19.905,24.581 C17.894,22.943 14.896,21.891 10.994,21.453 C8.239,21.143 6.013,21.171 3.371,21.525 C2.810,21.601 2.416,22.117 2.491,22.678 C2.567,23.240 3.083,23.633 3.644,23.558 C4.575,23.433 6.917,23.059 10.765,23.491 C14.220,23.879 16.933,24.805 18.610,26.171 C18.800,26.326 19.029,26.401 19.257,26.401 L19.257,26.401 ZM15.099,30.141 C15.485,30.141 15.856,29.921 16.029,29.547 C16.268,29.033 16.045,28.424 15.531,28.185 C11.610,26.364 8.065,25.833 2.649,26.560 C2.087,26.635 1.693,27.151 1.769,27.713 C1.844,28.274 2.360,28.668 2.922,28.593 C7.938,27.919 11.111,28.394 14.667,30.045 C14.807,30.110 14.954,30.141 15.099,30.141 L15.099,30.141 Z" class="cls-1"/>
</svg>
