<svg xmlns="http://www.w3.org/2000/svg" xmlns:xlink="http://www.w3.org/1999/xlink" preserveAspectRatio="xMidYMid" width="29.625" height="31.063" viewBox="0 0 29.625 31.063">
  <defs>
    <style>
      .cls-1 {
        fill: #b0b0b0;
        fill-rule: evenodd;
      }
    </style>
  </defs>
  <path d="M-0.005,12.442 L-0.005,30.251 L1.377,31.019 L9.155,26.183 L20.164,31.077 L21.008,31.019 L29.193,25.931 L29.619,25.163 L29.619,7.354 L28.238,6.586 L20.460,11.422 L17.505,10.108 C17.795,9.333 17.939,8.618 17.939,7.956 C17.939,3.570 14.371,0.002 9.985,0.002 C5.599,0.002 2.031,3.570 2.031,7.956 C2.031,8.685 2.207,9.479 2.559,10.346 L0.422,11.674 L-0.005,12.442 ZM9.985,1.810 C13.380,1.810 16.132,4.562 16.132,7.956 C16.132,11.351 9.985,17.115 9.985,17.115 C9.985,17.115 3.839,11.351 3.839,7.956 C3.839,4.562 6.591,1.810 9.985,1.810 ZM1.803,12.944 L3.375,11.968 C3.920,12.890 4.632,13.884 5.517,14.958 C7.109,16.891 8.682,18.372 8.749,18.434 L9.985,19.594 L11.222,18.434 C11.288,18.372 12.862,16.891 14.454,14.958 C15.411,13.796 16.168,12.726 16.728,11.741 L20.164,13.268 L21.008,13.210 L27.812,8.980 L27.812,24.661 L20.460,29.231 L9.451,24.337 L8.607,24.395 L1.803,28.625 L1.803,12.944 ZM13.601,7.836 C13.601,5.842 11.979,4.220 9.985,4.220 C7.992,4.220 6.370,5.842 6.370,7.836 C6.370,9.829 7.992,11.451 9.985,11.451 C11.979,11.451 13.601,9.829 13.601,7.836 ZM8.178,7.836 C8.178,6.839 8.989,6.028 9.985,6.028 C10.982,6.028 11.793,6.839 11.793,7.836 C11.793,8.832 10.982,9.643 9.985,9.643 C8.989,9.643 8.178,8.832 8.178,7.836 Z" class="cls-1"/>
</svg>
