<?xml version="1.0" encoding="utf-8"?>
<!-- Generator: Adobe Illustrator 19.1.0, SVG Export Plug-In . SVG Version: 6.00 Build 0)  -->
<svg version="1.1" id="Layer_4" xmlns="http://www.w3.org/2000/svg" xmlns:xlink="http://www.w3.org/1999/xlink" x="0px" y="0px"
	 viewBox="0 0 36 36" style="enable-background:new 0 0 36 36;" xml:space="preserve">
<style type="text/css">
	.st0{fill-rule:evenodd;clip-rule:evenodd;fill:#157FB9;}
</style>
<path class="st0" d="M36,0H18H0v18v18h18h18V18V0L36,0z M29.3,28.2h-3.9v-7.6c0-1.6-0.1-2.6-0.3-3.1c-0.2-0.5-0.4-0.8-0.8-1.1
	c-0.4-0.3-0.8-0.4-1.4-0.4c-0.7,0-1.3,0.2-1.8,0.6c-0.5,0.4-0.9,0.9-1.1,1.5c-0.2,0.6-0.3,1.7-0.3,3.4v6.7h-3.9V13.3h3.6v2.2
	c1.3-1.7,2.9-2.5,4.9-2.5c0.9,0,1.7,0.2,2.4,0.5c0.7,0.3,1.3,0.7,1.6,1.2c0.4,0.5,0.6,1,0.8,1.6c0.1,0.6,0.2,1.5,0.2,2.6V28.2
	L29.3,28.2z M10.6,7.4c1.2,0,2.2,1,2.2,2.2c0,1.2-1,2.2-2.2,2.2c-1.2,0-2.2-1-2.2-2.2C8.4,8.4,9.4,7.4,10.6,7.4L10.6,7.4z M8.7,28.2
	V13.3h3.9v14.8H8.7z"/>
</svg>
