<?xml version="1.0" encoding="utf-8"?>
<!-- Generator: Adobe Illustrator 19.1.0, SVG Export Plug-In . SVG Version: 6.00 Build 0)  -->
<svg version="1.1" id="Layer_2" xmlns="http://www.w3.org/2000/svg" xmlns:xlink="http://www.w3.org/1999/xlink" x="0px" y="0px"
	 viewBox="0 0 36 36" style="enable-background:new 0 0 36 36;" xml:space="preserve">
<style type="text/css">
	.st0{fill-rule:evenodd;clip-rule:evenodd;fill:#4065B4;}
</style>
<path class="st0" d="M36,0H18H0v18v18h18h18V18V0L36,0z M20.3,14.1h2.3v3.5h-2.3v9.1h-4.8v-9.1h-1.8v-3.5h1.8v-0.6
	c0-0.5,0.1-1.1,0.2-1.7c0.1-0.6,0.3-1.1,0.6-1.5c0.3-0.4,0.7-0.7,1.3-0.9C18.1,9.1,18.9,9,19.9,9c0.8,0,2.1,0.1,3.7,0.3l-0.5,2.9
	c-0.6-0.1-1-0.1-1.4-0.1c-0.4,0-0.7,0.1-0.9,0.2c-0.2,0.1-0.3,0.4-0.4,0.7C20.3,13.1,20.3,13.5,20.3,14.1z"/>
</svg>
