<svg xmlns="http://www.w3.org/2000/svg" xmlns:xlink="http://www.w3.org/1999/xlink" preserveAspectRatio="xMidYMid" width="16.5" height="16.5" viewBox="0 0 16.5 16.5">
  <defs>
    <style>
      .cls-1 {
        fill: #799a2a;
        fill-rule: evenodd;
      }
    </style>
  </defs>
  <path d="M4.867,6.682 L3.712,7.837 L7.425,11.550 L15.675,3.300 L14.520,2.145 L7.425,9.240 L4.867,6.682 ZM14.850,8.250 C14.850,11.880 11.880,14.850 8.250,14.850 C4.620,14.850 1.650,11.880 1.650,8.250 C1.650,4.620 4.620,1.650 8.250,1.650 C8.910,1.650 9.487,1.732 10.065,1.897 L11.385,0.577 C10.395,0.247 9.322,-0.000 8.250,-0.000 C3.712,-0.000 -0.000,3.712 -0.000,8.250 C-0.000,12.787 3.712,16.500 8.250,16.500 C12.787,16.500 16.500,12.787 16.500,8.250 L14.850,8.250 Z" class="cls-1"/>
</svg>
