<?xml version="1.0" encoding="utf-8"?>
<!-- Generator: Adobe Illustrator 19.1.0, SVG Export Plug-In . SVG Version: 6.00 Build 0)  -->
<svg version="1.1" id="Layer_7" xmlns="http://www.w3.org/2000/svg" xmlns:xlink="http://www.w3.org/1999/xlink" x="0px" y="0px"
	 viewBox="0 0 36 36" style="enable-background:new 0 0 36 36;" xml:space="preserve">
<style type="text/css">
	.st0{fill-rule:evenodd;clip-rule:evenodd;fill:#C13A35;}
</style>
<path class="st0" d="M36,0H18H0v18v18h18h18V18V0L36,0z M21.9,16.1l0-0.4v-0.1V15v-0.2v-0.4V14V14v-0.4v-0.3v-0.4v-0.4v-0.2v-0.6
	v-0.1v-0.6v0v-0.5V10l0-0.6c0-0.1,0,0,0.1,0c0,0,0.1,0,0.1,0c0.1,0,0.2,0,0.2,0h1.3V10v0.8v0.8v0.8v0.8l0,0.8v0.4v0.4
	c0,0.1,0,0.5,0,0.5c0,0.1,0,0.2,0.1,0.3c0,0,0,0,0,0l0.1,0.1c0.3,0.1,0.5-0.1,0.6-0.1l0.1,0c0,0,0,0,0,0l0.2-0.1
	c0.1-0.1,0.2-0.1,0.2-0.2c0,0,0,0,0.1,0c0,0,0,0,0,0c0,0,0,0,0-0.1c0,0,0-0.1,0-0.1c0-0.1,0-0.1,0-0.2V14v-1.2l0-0.4V12v-0.8v-0.4
	l0-0.8l0-0.6H27v0.1v0.3V10v0.1v0.7v0.2v0.2v0.6V12v0.2v0.2v0.2v0.2V13v0.3v0.4V14v0.2v0.5v0.1v0.4v0.4v0.1v0.9l0,0.3h-1.8
	c0-0.2,0-0.6,0-0.8c-0.1,0.1-0.2,0.2-0.4,0.3c0,0,0,0-0.1,0.1c-0.3,0.2-0.8,0.5-1.2,0.5c-0.4,0.1-0.9,0.1-1.2-0.2
	c-0.2-0.1-0.2-0.2-0.2-0.2c0-0.1-0.1-0.1-0.1-0.2l0,0C21.9,16.3,21.9,16.2,21.9,16.1L21.9,16.1z M10.5,18.2h15
	c1.6,0,2.9,1.3,2.9,2.9v5.2c0,1.6-1.3,2.9-2.9,2.9h-15c-1.6,0-2.9-1.3-2.9-2.9v-5.2C7.6,19.5,8.9,18.2,10.5,18.2L10.5,18.2z
	 M19.7,26.2v-0.3v-0.4V25v-0.3v-0.5v-0.4v-0.6v-0.4c0.2-0.1,0.4-0.3,0.7-0.2c0.3,0.1,0.3,0.3,0.3,0.6v0.8v0.2v0.5V25v0.5v0.4l0,0.2
	c0,0.3-0.2,0.4-0.5,0.4C20.1,26.5,19.7,26.3,19.7,26.2L19.7,26.2z M18.4,27.3l0-7.4l1.3,0l0,0.3v0.9l0,1.1l0,0.1
	c0.3-0.2,0.7-0.5,1.2-0.5c0.2,0,0.5,0.1,0.7,0.2c0.2,0.2,0.3,0.3,0.4,0.5c0,0.1,0,0.1,0.1,0.2c0,0.1,0,0.4,0,0.6c0,0.2,0,0.4,0,0.6
	v0.6v0.2v0.1v0.7v0.4v0.3c0,0.3,0,0.4-0.1,0.6c0,0-0.1,0.1-0.1,0.1c-0.1,0.1-0.1,0.1-0.1,0.2l-0.1,0.1c-0.3,0.2-0.7,0.2-1,0.2
	c-0.3,0-0.8-0.2-0.9-0.5l0,0.4L18.4,27.3L18.4,27.3z M24.4,23c0-0.1,0.1-0.2,0.2-0.2c0.1-0.1,0.3-0.1,0.5-0.1c0.2,0,0.3,0.1,0.3,0.2
	c0.1,0.2,0.1,0.8,0.1,1l-1.1,0C24.3,23.7,24.3,23.1,24.4,23L24.4,23z M24.1,21.8c0.2,0,0.3-0.1,0.5-0.1c0.2,0,0.3,0,0.5,0
	c0.8,0.1,1.3,0.4,1.5,1l0.1,0.4l0,1.6l-2.4,0c0,0.2,0,1.1,0,1.2c0,0.1,0,0.2,0,0.2c0,0.2,0.2,0.3,0.4,0.3c0.3,0,0.5,0,0.6-0.2
	c0-0.1,0.1-0.2,0.1-0.3l0-0.3l0-0.3l0,0l1.3,0l0,0.5l0,0.3c0,0.2-0.1,0.3-0.1,0.5c0,0-0.1,0.1-0.1,0.2c-0.1,0.1-0.1,0.1-0.1,0.2
	c-0.1,0-0.3,0.4-1.3,0.5c-1,0.1-1.3-0.3-1.5-0.3c-0.1-0.1-0.1-0.1-0.1-0.2c-0.1-0.1-0.1-0.1-0.1-0.1c0-0.1-0.1-0.2-0.1-0.3
	c0-0.1-0.1-0.2-0.1-0.3l0-0.3l0-0.1l0-2.6l0.1-0.4c0.1-0.3,0.3-0.6,0.6-0.8C23.9,21.9,24,21.9,24.1,21.8L24.1,21.8z M13.6,26.5
	l0-4.7l1.3,0l0,0.5l0,0.6l0,0.3v1v0.5V25v0.3v0.4l0,0.3c0,0.2,0.1,0.2,0.2,0.3c0.1,0,0.3,0,0.4,0c0.2-0.1,0.5-0.3,0.5-0.4l0-0.2
	l0-0.4V25v-0.3v-0.5v-1l0-0.5v-0.5v-0.5l1.3,0l0,5.4l-1.3,0v-0.6c-0.3,0.2-0.5,0.4-1,0.6c-0.9,0.3-1.1-0.2-1.2-0.2
	C13.7,26.9,13.6,26.9,13.6,26.5L13.6,26.5L13.6,26.5z M9.2,21l0-1.1l4.4,0l0,1.1l-1.5,0l0,0.2v0.3v1l0,0.9l0,0.8v0.5V25v0.5v0.4v0.3
	v0.4v0.5l0,0.2l-1.4,0l0-6.3L9.2,21L9.2,21z M20.4,12.4v0.4l0,1.2v0.8l0,0.4l0,0.2c0,0.1,0,0.1-0.1,0.2c0,0.1-0.1,0.2-0.1,0.3
	c0,0,0,0.1-0.1,0.1c0,0.1,0,0,0,0.1c0,0,0,0.1-0.1,0.1c-0.1,0.1-0.1,0.1-0.2,0.2c0,0.1,0,0-0.1,0.1c0,0,0,0-0.1,0l-0.1,0.1
	c-0.5,0.3-1.2,0.4-1.8,0.4c-0.3,0-0.5,0-0.8-0.1c-0.1,0-0.2-0.1-0.4-0.1c-0.1,0-0.2-0.1-0.3-0.1c-0.1-0.1-0.1-0.1-0.2-0.2l-0.2-0.2
	c-0.1,0-0.1-0.1-0.2-0.2c0-0.1-0.1-0.2-0.2-0.2L15.4,16l-0.1-0.3l0-0.2l0-0.2l0-0.4v-0.8v-1.2l0-0.4v-0.8v-0.4l0-0.2l0-0.2
	c0-0.1,0.1-0.3,0.2-0.4c0-0.1,0.1-0.2,0.2-0.3c0-0.1,0.1-0.2,0.2-0.2l0.1-0.1c0.7-0.6,2-0.6,2.9-0.4c0.5,0.1,0.6,0.2,0.8,0.4
	c0,0,0,0,0.1,0.1c0.1,0,0,0,0.1,0.1l0.1,0c0.1,0,0,0,0.1,0l0.3,0.3v0c0.1,0.1,0.1,0.3,0.2,0.4c0,0.1,0,0.1,0,0.1l0,0.3l0,0.4V12
	V12.4L20.4,12.4z M18.6,12v0.4v0.4v1.2l0,0.8c0,0.1,0,0.5,0,0.5c0,0.1,0,0,0,0.1c0,0.1,0,0,0,0.1c0,0.1,0,0,0,0.1c0,0,0,0-0.1,0.1
	c-0.1,0-0.1,0.1-0.3,0.2c-0.1,0-0.2,0.1-0.4,0.1c-0.4,0-0.5-0.2-0.6-0.2c0-0.1-0.1-0.1-0.1-0.2l0-0.1c0-0.1,0-0.4,0-0.5v-0.8v-1.2
	l0-0.4v-0.8v-0.4c0-0.2,0.1-0.3,0.2-0.4c0.2-0.1,0.3-0.1,0.6-0.1c0.3,0,0.4,0.1,0.6,0.2c0,0,0,0,0,0c0,0,0,0,0,0
	c0.1,0.1,0.1,0.2,0.1,0.3l0,0.4V12L18.6,12z M13.9,9.8c0,0.1-0.1,0.4-0.2,0.5l-0.4,1c0,0.1-0.1,0.3-0.2,0.4c-0.1,0.1,0,0.1-0.1,0.1
	l0,0l-0.2,0.5l0,0c0,0.1-0.1,0.3-0.1,0.4l0,0.6v0.1v0.4v0.1v0.7v0.3V15v0.5v0.1V16v0.1l0,0.8l0,0l-2,0l0-0.3v-0.7v-0.5v-0.3v-0.5
	v-0.5v-1c0-0.3-0.2-0.5-0.2-0.7l0-0.1c0,0,0,0,0-0.1c0-0.1-0.1-0.3-0.1-0.4c-0.1-0.1-0.1-0.2-0.1-0.2c0-0.1-0.1-0.2-0.1-0.3
	C10,11.3,10,11.2,10,11.1l-0.1-0.3c-0.1-0.2-0.1-0.4-0.2-0.5L9.4,9.7C9.4,9.7,9.3,9.4,9.3,9.3C9.2,9.2,9.2,9.1,9.1,9
	c0-0.1-0.1-0.2-0.1-0.3L9,8.6c0-0.1-0.1-0.3-0.1-0.4C8.8,8.2,8.7,7.8,8.7,7.7C8.6,7.6,8.5,7.5,8.5,7.3C8.4,7.2,8.4,7.1,8.3,6.9h2
	c0.1,0,0,0,0.1,0.2l0.2,0.6l0.2,0.5l0.2,0.5l0.2,0.5l0.2,0.5l0.2,0.5l0.2,0.6l0.1,0l0.2-0.6l0.2-0.5l0.2-0.5l0.2-0.5l0.2-0.5
	l0.2-0.5c0-0.1,0.2-0.8,0.3-0.8h2c0,0.1-0.3,0.7-0.3,0.8c0,0.1-0.1,0.3-0.1,0.4l-0.1,0.1c0,0.1-0.2,0.5-0.2,0.5
	c0,0.1-0.1,0.4-0.2,0.5C14.1,9.4,13.9,9.7,13.9,9.8z"/>
</svg>
