<?xml version="1.0" encoding="utf-8"?>
<!-- Generator: Adobe Illustrator 18.0.0, SVG Export Plug-In . SVG Version: 6.00 Build 0)  -->
<!DOCTYPE svg PUBLIC "-//W3C//DTD SVG 1.1//EN" "http://www.w3.org/Graphics/SVG/1.1/DTD/svg11.dtd">
<svg version="1.1" id="Capa_1" xmlns="http://www.w3.org/2000/svg" xmlns:xlink="http://www.w3.org/1999/xlink" x="0px" y="0px"
	 viewBox="198 0 396 792" enable-background="new 198 0 396 792" xml:space="preserve">
<g>
	<g id="_x33__30_">
		<g>
			<path d="M544.5,99v495c0,82-66.5,148.5-148.5,148.5S247.5,676,247.5,594V148.5c0-54.7,44.3-99,99-99s99,44.3,99,99V594
				c0,27.3-22.2,49.5-49.5,49.5c-27.3,0-49.5-22.2-49.5-49.5V198H297v396c0,54.7,44.3,99,99,99s99-44.3,99-99V148.5
				C495,66.5,428.5,0,346.5,0S198,66.5,198,148.5v470.3C210.2,716.4,295,792,396,792s185.8-75.6,198-173.3V99H544.5z"/>
		</g>
	</g>
</g>
</svg>
