<?xml version="1.0" encoding="utf-8"?>
<!-- Generator: Adobe Illustrator 19.1.0, SVG Export Plug-In . SVG Version: 6.00 Build 0)  -->
<svg version="1.1" id="Layer_5" xmlns="http://www.w3.org/2000/svg" xmlns:xlink="http://www.w3.org/1999/xlink" x="0px" y="0px"
	 viewBox="0 0 36 36" style="enable-background:new 0 0 36 36;" xml:space="preserve">
<style type="text/css">
	.st0{fill-rule:evenodd;clip-rule:evenodd;fill:#4E759D;}
</style>
<path class="st0" d="M36,0H18H0v18v18h18h18V18V0L36,0z M11.5,9.5h9.7c1.6,0,2.8,0.4,3.7,1.2c0.9,0.8,1.3,1.8,1.3,3
	c0,1-0.3,1.8-0.9,2.5c-0.4,0.5-1,0.8-1.8,1.1c1.2,0.3,2.1,0.8,2.6,1.5c0.6,0.7,0.8,1.6,0.8,2.6c0,0.9-0.2,1.6-0.6,2.3
	c-0.4,0.7-1,1.2-1.7,1.6c-0.4,0.2-1.1,0.4-2,0.5c-1.2,0.2-1.9,0.2-2.3,0.2h-8.9V9.5L11.5,9.5z M16.7,16.1v-3.2H19
	c0.8,0,1.3,0.1,1.6,0.4c0.3,0.3,0.5,0.7,0.5,1.1c0,0.5-0.2,0.9-0.5,1.2c-0.3,0.3-0.9,0.4-1.7,0.4H16.7L16.7,16.1z M16.7,22.6v-3.4
	h2.6c0.9,0,1.5,0.2,1.9,0.5c0.4,0.3,0.5,0.7,0.5,1.2c0,0.5-0.2,1-0.5,1.3c-0.4,0.3-1,0.5-1.9,0.5H16.7z"/>
</svg>
