<svg xmlns="http://www.w3.org/2000/svg" xmlns:xlink="http://www.w3.org/1999/xlink" preserveAspectRatio="xMidYMid" width="67.844" height="92.91" viewBox="0 0 67.844 92.91">
  <defs>
    <style>
      .cls-1 {
        fill: #799a2a;
        fill-rule: evenodd;
      }
    </style>
  </defs>
  <path d="M67.412,35.221 L62.500,41.649 L63.549,49.677 C63.669,50.596 63.158,51.481 62.303,51.836 L54.836,54.933 L51.744,62.412 C51.470,63.075 50.878,63.530 50.199,63.646 L50.199,90.858 C50.199,91.605 49.793,92.293 49.139,92.653 C48.832,92.822 48.493,92.906 48.154,92.906 C47.773,92.906 47.392,92.800 47.058,92.588 L33.913,84.236 L20.768,92.588 C20.138,92.988 19.340,93.013 18.687,92.653 C18.033,92.293 17.627,91.605 17.627,90.857 L17.627,63.647 C16.948,63.531 16.356,63.075 16.082,62.412 L12.991,54.932 L5.523,51.835 C4.668,51.481 4.157,50.596 4.278,49.677 L5.327,41.649 L0.414,35.221 C-0.147,34.486 -0.147,33.465 0.414,32.730 L5.327,26.302 L4.278,18.274 C4.157,17.355 4.668,16.470 5.523,16.115 L12.991,13.019 L16.082,5.539 C16.436,4.683 17.320,4.171 18.238,4.291 L26.252,5.342 L32.670,0.422 C33.404,-0.141 34.422,-0.141 35.156,0.422 L41.574,5.342 L49.589,4.291 C50.507,4.171 51.390,4.682 51.744,5.539 L54.835,13.018 L62.303,16.115 C63.158,16.470 63.669,17.355 63.549,18.274 L62.499,26.302 L67.412,32.730 C67.973,33.465 67.973,34.486 67.412,35.221 ZM21.718,87.132 L32.818,80.080 C33.486,79.655 34.340,79.655 35.009,80.080 L46.108,87.132 L46.108,63.204 L41.574,62.609 L35.156,67.529 C34.789,67.810 34.351,67.951 33.913,67.951 C33.475,67.951 33.037,67.811 32.670,67.529 L26.252,62.609 L21.718,63.203 L21.718,87.132 ZM58.738,28.121 C58.409,27.690 58.264,27.147 58.334,26.609 L59.289,19.300 L52.488,16.480 C51.986,16.272 51.588,15.873 51.381,15.371 L48.565,8.558 L41.267,9.515 C40.731,9.586 40.188,9.440 39.759,9.110 L33.913,4.629 L28.068,9.110 C27.638,9.440 27.096,9.586 26.559,9.515 L19.262,8.558 L16.446,15.371 C16.238,15.873 15.840,16.272 15.339,16.480 L8.537,19.300 L9.492,26.609 C9.562,27.146 9.417,27.690 9.088,28.120 L4.614,33.975 L9.088,39.830 C9.417,40.261 9.562,40.804 9.492,41.341 L8.537,48.651 L15.338,51.471 C15.840,51.679 16.238,52.078 16.446,52.580 L19.262,59.393 L26.559,58.436 C26.647,58.425 26.736,58.419 26.824,58.419 C27.271,58.419 27.709,58.566 28.068,58.841 L33.913,63.322 L39.758,58.841 C40.188,58.511 40.731,58.366 41.267,58.436 L48.564,59.393 L51.380,52.581 C51.588,52.078 51.986,51.679 52.488,51.471 L59.289,48.651 L58.334,41.342 C58.264,40.804 58.409,40.261 58.738,39.831 L63.212,33.976 L58.738,28.121 ZM33.913,55.764 C21.918,55.764 12.160,45.990 12.160,33.975 C12.160,29.702 13.395,25.564 15.732,22.009 C16.353,21.063 17.622,20.802 18.565,21.424 C19.508,22.046 19.770,23.317 19.149,24.262 C17.253,27.146 16.251,30.505 16.251,33.975 C16.251,43.731 24.174,51.667 33.913,51.667 C43.652,51.667 51.576,43.731 51.576,33.975 C51.576,26.505 46.858,19.805 39.835,17.302 C38.771,16.923 38.215,15.751 38.594,14.685 C38.973,13.620 40.142,13.063 41.207,13.442 C49.856,16.524 55.666,24.776 55.666,33.975 C55.666,45.990 45.908,55.764 33.913,55.764 ZM33.913,16.284 C29.837,16.284 25.860,17.708 22.716,20.293 C22.336,20.605 21.876,20.758 21.420,20.758 C20.828,20.758 20.242,20.502 19.837,20.009 C19.121,19.134 19.247,17.843 20.121,17.125 C23.995,13.941 28.893,12.187 33.913,12.187 C35.043,12.187 35.959,13.104 35.959,14.235 C35.959,15.367 35.043,16.284 33.913,16.284 Z" class="cls-1"/>
</svg>
